<svg width="479" height="106" viewBox="0 0 479 106" fill="none" xmlns="http://www.w3.org/2000/svg">
<path d="M8.11692 42.6935H0V50.8104H8.11692V42.6935Z" fill="#00FFA7"/>
<path d="M24.2029 29.2244H13.3951V40.0322H24.2029V29.2244Z" fill="#00FFA7"/>
<path d="M22.5913 48.1195H17.1801V53.5308H22.5913V48.1195Z" fill="#00FFA7"/>
<path d="M45.6115 83.2338C47.09 82.6572 48.4651 81.7701 49.7514 80.5281L55.4287 86.6787C51.9691 90.641 46.9126 92.6222 40.2594 92.6222C36.1048 92.6222 32.4381 91.8091 29.2594 90.1975C26.0658 88.5859 23.6115 86.3386 21.8817 83.4703C20.1519 80.6021 19.2795 77.3346 19.2795 73.6975C19.2795 70.0604 20.1371 66.8521 21.8374 63.9542C23.5525 61.0564 25.8884 58.809 28.875 57.1827C31.8615 55.5711 35.2177 54.758 38.9583 54.758C42.4623 54.758 45.6559 55.4972 48.5242 56.9757C51.3925 58.4542 53.6841 60.598 55.3991 63.4072C57.1142 66.2163 57.957 69.5281 57.957 73.3574L30.7527 78.6209C31.5215 80.4394 32.7487 81.8144 34.4046 82.7163C36.0605 83.633 38.1008 84.0765 40.5255 84.0765C42.4328 84.0765 44.133 83.7956 45.6115 83.219V83.2338ZM32.3938 65.4327C30.7083 67.1626 29.8212 69.5577 29.7325 72.6034L47.6371 69.1142C47.1344 67.2069 46.1143 65.6693 44.5618 64.5308C43.0094 63.3924 41.1465 62.8158 38.9583 62.8158C36.2674 62.8158 34.0793 63.6881 32.3938 65.4179V65.4327Z" fill="#2E2E2E"/>
<path d="M100.952 55.3198L85.4274 92.09H74.4274L58.9772 55.3198H69.9772L80.1639 80.336L90.6908 55.3198H100.952Z" fill="#2E2E2E"/>
<path d="M111.375 90.2123C108.3 88.6008 105.89 86.3535 104.16 83.4852C102.43 80.6169 101.558 77.3494 101.558 73.7123C101.558 70.0752 102.415 66.8078 104.16 63.9395C105.89 61.0712 108.3 58.8239 111.375 57.2123C114.45 55.6007 117.925 54.7876 121.798 54.7876C125.672 54.7876 129.132 55.6007 132.192 57.2123C135.238 58.8239 137.633 61.0712 139.363 63.9395C141.093 66.8078 141.965 70.0752 141.965 73.7123C141.965 77.3494 141.093 80.6169 139.363 83.4852C137.633 86.3535 135.238 88.6008 132.192 90.2123C129.132 91.8239 125.672 92.6371 121.798 92.6371C117.925 92.6371 114.45 91.8239 111.375 90.2123ZM128.525 81.1196C130.285 79.2715 131.157 76.8024 131.157 73.6976C131.157 70.5927 130.285 68.1236 128.525 66.2755C126.766 64.4274 124.534 63.5107 121.798 63.5107C119.063 63.5107 116.801 64.4274 115.027 66.2755C113.253 68.1236 112.366 70.5927 112.366 73.6976C112.366 76.8024 113.253 79.2715 115.027 81.1196C116.801 82.9677 119.063 83.8844 121.798 83.8844C124.534 83.8844 126.781 82.9677 128.525 81.1196Z" fill="#2E2E2E"/>
<path d="M152.566 89.3252C150.245 87.1222 149.077 83.9878 149.077 79.922V41.3629H159.737V79.301C159.737 80.8534 160.136 82.051 160.934 82.8938C161.733 83.7365 162.856 84.1504 164.32 84.1504C164.867 84.1504 165.429 84.0765 165.991 83.9435C166.552 83.8104 167.011 83.6478 167.321 83.4703L167.794 91.7351C166.02 92.3265 164.172 92.6222 162.25 92.6222C158.095 92.6222 154.872 91.5134 152.551 89.3104L152.566 89.3252Z" fill="#2E2E2E"/>
<path d="M210.109 55.3198V92.09H199.996V87.7136C198.577 89.3104 196.891 90.5228 194.939 91.3655C192.973 92.2082 190.859 92.6222 188.582 92.6222C183.747 92.6222 179.918 91.2324 177.094 88.4529C174.27 85.6733 172.851 81.5483 172.851 76.0779V55.2903H183.511V74.4959C183.511 80.4246 185.995 83.3816 190.962 83.3816C193.52 83.3816 195.56 82.5537 197.113 80.883C198.665 79.2271 199.434 76.7432 199.434 73.461V55.2755H210.094L210.109 55.3198Z" fill="#2E2E2E"/>
<path d="M242.177 90.3158C241.128 91.0846 239.841 91.676 238.319 92.0604C236.796 92.4448 235.214 92.637 233.573 92.637C229.152 92.637 225.751 91.5281 223.386 89.2808C221.02 87.0483 219.837 83.7661 219.837 79.4341V47.1733H230.497V56.133H239.59V64.3386H230.497V79.301C230.497 80.8534 230.882 82.051 231.665 82.8938C232.434 83.7365 233.558 84.1505 235.022 84.1505C236.663 84.1505 238.126 83.6921 239.398 82.7903L242.207 90.3158H242.177Z" fill="#2E2E2E"/>
<path d="M248.742 48.4744C247.515 47.336 246.894 45.9166 246.894 44.2311C246.894 42.5456 247.515 41.1263 248.742 39.9878C249.969 38.8494 251.566 38.2728 253.532 38.2728C255.499 38.2728 257.081 38.8198 258.323 39.9139C259.55 41.008 260.171 42.3682 260.171 44.0093C260.171 45.7835 259.55 47.262 258.323 48.4153C257.095 49.5833 255.499 50.1599 253.532 50.1599C251.566 50.1599 249.984 49.5833 248.742 48.4448V48.4744ZM248.195 55.3198H258.855V92.09H248.195V55.3198Z" fill="#2E2E2E"/>
<path d="M275.843 90.2123C272.767 88.6008 270.358 86.3535 268.628 83.4852C266.898 80.6169 266.026 77.3494 266.026 73.7123C266.026 70.0752 266.883 66.8078 268.628 63.9395C270.358 61.0712 272.767 58.8239 275.843 57.2123C278.918 55.6007 282.392 54.7876 286.266 54.7876C290.14 54.7876 293.599 55.6007 296.66 57.2123C299.706 58.8239 302.101 61.0712 303.831 63.9395C305.56 66.8078 306.433 70.0752 306.433 73.7123C306.433 77.3494 305.56 80.6169 303.831 83.4852C302.101 86.3535 299.706 88.6008 296.66 90.2123C293.599 91.8239 290.14 92.6371 286.266 92.6371C282.392 92.6371 278.918 91.8239 275.843 90.2123ZM292.993 81.1196C294.753 79.2715 295.625 76.8024 295.625 73.6976C295.625 70.5927 294.753 68.1236 292.993 66.2755C291.234 64.4274 289.001 63.5107 286.266 63.5107C283.531 63.5107 281.269 64.4274 279.495 66.2755C277.72 68.1236 276.833 70.5927 276.833 73.6976C276.833 76.8024 277.72 79.2715 279.495 81.1196C281.269 82.9677 283.531 83.8844 286.266 83.8844C289.001 83.8844 291.249 82.9677 292.993 81.1196Z" fill="#2E2E2E"/>
<path d="M346.929 58.8682C349.738 61.6034 351.128 65.6545 351.128 71.0362V92.09H340.468V72.6774C340.468 69.7647 339.832 67.5913 338.56 66.1424C337.289 64.7083 335.441 63.9838 333.016 63.9838C330.325 63.9838 328.181 64.8118 326.585 66.4825C324.988 68.1532 324.19 70.6222 324.19 73.9045V92.09H313.53V55.3198H323.716V59.6222C325.136 58.0698 326.88 56.8722 328.98 56.0295C331.079 55.1868 333.371 54.7728 335.884 54.7728C340.438 54.7728 344.12 56.133 346.929 58.8682Z" fill="#2E2E2E"/>
<path d="M398.499 55.3198V92.09H388.312V87.8467C385.665 91.0403 381.836 92.6371 376.824 92.6371C373.364 92.6371 370.23 91.8682 367.421 90.3158C364.612 88.7634 362.423 86.5604 360.827 83.6921C359.23 80.8239 358.431 77.4973 358.431 73.7123C358.431 69.9274 359.23 66.6007 360.827 63.7325C362.423 60.8642 364.626 58.6465 367.421 57.1088C370.23 55.5564 373.349 54.7876 376.824 54.7876C381.511 54.7876 385.192 56.2661 387.824 59.2231V55.3198H398.484H398.499ZM385.384 81.1196C387.159 79.2715 388.046 76.8024 388.046 73.6976C388.046 70.5927 387.159 68.1236 385.384 66.2755C383.61 64.4274 381.378 63.5107 378.687 63.5107C375.996 63.5107 373.69 64.4274 371.915 66.2755C370.141 68.1236 369.254 70.5927 369.254 73.6976C369.254 76.8024 370.141 79.2715 371.915 81.1196C373.69 82.9677 375.952 83.8844 378.687 83.8844C381.422 83.8844 383.61 82.9677 385.384 81.1196Z" fill="#00FFA7"/>
<path d="M439.423 57.1236C442.232 58.6908 444.421 60.9085 446.017 63.7472C447.614 66.6007 448.413 69.9126 448.413 73.6975C448.413 77.4825 447.614 80.7943 446.017 83.6477C444.421 86.5012 442.218 88.7042 439.423 90.2714C436.629 91.8386 433.509 92.6222 430.094 92.6222C425.407 92.6222 421.711 91.1437 419.02 88.1867V105.337H408.36V55.305H418.547V59.5483C421.193 56.3548 425.038 54.758 430.094 54.758C433.509 54.758 436.629 55.5416 439.423 57.1088V57.1236ZM434.973 81.1195C436.732 79.2714 437.605 76.8023 437.605 73.6975C437.605 70.5927 436.732 68.1236 434.973 66.2754C433.214 64.4273 430.981 63.5107 428.246 63.5107C425.511 63.5107 423.263 64.4273 421.519 66.2754C419.759 68.1236 418.887 70.5927 418.887 73.6975C418.887 76.8023 419.759 79.2714 421.519 81.1195C423.278 82.9676 425.511 83.8843 428.246 83.8843C430.981 83.8843 433.228 82.9676 434.973 81.1195Z" fill="#00FFA7"/>
<path d="M455.509 55.3198H466.169V92.09H455.509V55.3198Z" fill="#00FFA7"/>
<path d="M430.079 37.0456C432.829 38.258 436.038 37.0456 437.324 34.34L448.693 37.9623C448.516 42.3534 450.97 46.6115 455.228 48.4891C460.773 50.9434 467.278 48.43 469.718 42.8709C472.068 37.5483 469.851 31.3682 464.765 28.7069L470.679 13.1383C473.503 13.5967 476.401 12.1182 477.613 9.3682C479.047 6.10073 477.569 2.27144 474.301 0.837301C471.034 -0.611623 467.204 0.866857 465.77 4.14911C464.469 7.1061 465.563 10.5214 468.21 12.2069L462.296 27.7755C457.21 26.504 451.783 29.0322 449.595 33.9999C449.403 34.4435 449.241 34.9018 449.107 35.3454L437.827 31.7526C437.738 29.7123 436.526 27.7902 434.53 26.9031C431.72 25.6612 428.453 26.9327 427.211 29.7418C425.984 32.5362 427.241 35.8185 430.05 37.0604L430.079 37.0456Z" fill="#00FFA7"/>
</svg>
